<svg xmlns="http://www.w3.org/2000/svg" width="17" height="31" viewBox="0 0 17 31">
  <metadata><?xpacket begin="﻿" id="W5M0MpCehiHzreSzNTczkc9d"?>
<x:xmpmeta xmlns:x="adobe:ns:meta/" x:xmptk="Adobe XMP Core 5.6-c138 79.159824, 2016/09/14-01:09:01        ">
   <rdf:RDF xmlns:rdf="http://www.w3.org/1999/02/22-rdf-syntax-ns#">
      <rdf:Description rdf:about=""/>
   </rdf:RDF>
</x:xmpmeta>
                                                                                                    
                                                                                                    
                                                                                                    
                                                                                                    
                                                                                                    
                                                                                                    
                                                                                                    
                                                                                                    
                                                                                                    
                                                                                                    
                                                                                                    
                                                                                                    
                                                                                                    
                                                                                                    
                                                                                                    
                                                                                                    
                                                                                                    
                                                                                                    
                                                                                                    
                                                                                                    
                           
<?xpacket end="w"?></metadata>
<defs>
    <style>
      .cls-1 {
        fill: #868686;
        fill-rule: evenodd;
      }
    </style>
  </defs>
  <path id="ic-face" class="cls-1" d="M1395.36,2491.01l-4.08-.01c-4.58,0-7.54,2.99-7.54,7.63v3.52h-4.1a0.636,0.636,0,0,0-.64.63v5.1a0.643,0.643,0,0,0,.64.63h4.1v12.86a0.636,0.636,0,0,0,.64.63h5.35a0.636,0.636,0,0,0,.64-0.63v-12.86h4.8a0.643,0.643,0,0,0,.64-0.63v-5.1a0.636,0.636,0,0,0-.19-0.45,0.627,0.627,0,0,0-.45-0.18h-4.8v-2.99c0-1.43.35-2.16,2.24-2.16h2.75a0.636,0.636,0,0,0,.64-0.63v-4.73A0.636,0.636,0,0,0,1395.36,2491.01Z" transform="translate(-1379 -2491)"/>
</svg>
