<svg xmlns="http://www.w3.org/2000/svg" width="46" height="49" viewBox="0 0 46 49">
  <metadata><?xpacket begin="﻿" id="W5M0MpCehiHzreSzNTczkc9d"?>
<x:xmpmeta xmlns:x="adobe:ns:meta/" x:xmptk="Adobe XMP Core 5.6-c138 79.159824, 2016/09/14-01:09:01        ">
   <rdf:RDF xmlns:rdf="http://www.w3.org/1999/02/22-rdf-syntax-ns#">
      <rdf:Description rdf:about=""/>
   </rdf:RDF>
</x:xmpmeta>
                                                                                                    
                                                                                                    
                                                                                                    
                                                                                                    
                                                                                                    
                                                                                                    
                                                                                                    
                                                                                                    
                                                                                                    
                                                                                                    
                                                                                                    
                                                                                                    
                                                                                                    
                                                                                                    
                                                                                                    
                                                                                                    
                                                                                                    
                                                                                                    
                                                                                                    
                                                                                                    
                           
<?xpacket end="w"?></metadata>
<defs>
    <style>
      .cls-1 {
        fill: #fff;
        fill-rule: evenodd;
      }
    </style>
  </defs>
  <path id="logo" class="cls-1" d="M415.75,28.036a1.194,1.194,0,0,1,1.689-1.688l0.16,0.161a1.194,1.194,0,0,1-1.688,1.688Zm-0.161,13.29a3.452,3.452,0,1,1-3.453,3.452A3.457,3.457,0,0,1,415.589,41.326Zm0,2.387a1.065,1.065,0,1,0,1.066,1.065A1.066,1.066,0,0,0,415.589,43.713ZM421,58.622v1.431a3.386,3.386,0,0,1-3.383,3.381h-1v6.435A5.137,5.137,0,0,1,411.489,75H384.511a5.137,5.137,0,0,1-5.133-5.131V63.434h-1A3.385,3.385,0,0,1,375,60.053V58.622a3.386,3.386,0,0,1,3.383-3.381h1V51.713a1.193,1.193,0,0,1,1.194-1.194h34.856a1.193,1.193,0,0,1,1.194,1.194v3.527h1A3.386,3.386,0,0,1,421,58.622Zm-41.622-.994h-1a1,1,0,0,0-1,.994v1.431a1,1,0,0,0,1,.994h1v-3.42Zm34.856-4.721H381.766V69.869a2.747,2.747,0,0,0,2.745,2.744h26.978a2.747,2.747,0,0,0,2.745-2.744V52.907Zm4.378,5.715a1,1,0,0,0-1-.994h-1v3.42h1a1,1,0,0,0,1-.994V58.622Zm-6.169-23.058a1.192,1.192,0,0,0,.844-0.349l0.161-.161a1.194,1.194,0,0,0-1.688-1.688l-0.161.16A1.193,1.193,0,0,0,412.443,35.564Zm-9.9,12.6a1.194,1.194,0,0,0,2.388,0,1.711,1.711,0,0,1,3.421,0,1.194,1.194,0,0,0,2.388,0A4.1,4.1,0,0,0,402.546,48.16Zm-22.3-1.786a1.193,1.193,0,0,1,.887-1.436L394.1,41.872l-0.229-.968a3.385,3.385,0,0,1,2.514-4.068l1.393-.329a3.388,3.388,0,0,1,4.071,2.513l0.229,0.968,12.971-3.066a1.194,1.194,0,1,1,.55,2.323l-33.921,8.016A1.192,1.192,0,0,1,380.244,46.374ZM396.2,40.355l0.229,0.967,3.33-.787-0.229-.968a0.995,0.995,0,0,0-1.2-.739l-1.394.329A1,1,0,0,0,396.2,40.355Z" transform="translate(-375 -26)"/>
</svg>
